<svg xmlns="http://www.w3.org/2000/svg" width="15.145" height="20.383" viewBox="0 0 15.145 20.383">
  <path id="Path_1601" data-name="Path 1601" d="M773.332-51.254A7.465,7.465,0,0,0,765.76-43.9a7.144,7.144,0,0,0,.662,3.007h0c.112.242,6.91,10.025,6.91,10.025l6.12-8.2A11.877,11.877,0,0,0,780.9-43.9,7.464,7.464,0,0,0,773.332-51.254Zm0,12.18a4.9,4.9,0,0,1-4.973-4.828,4.9,4.9,0,0,1,4.973-4.828,4.9,4.9,0,0,1,4.973,4.828A4.9,4.9,0,0,1,773.332-39.074Z" transform="translate(-765.76 51.254)" fill="#fff"/>
</svg>
