<svg xmlns="http://www.w3.org/2000/svg" viewBox="0 0 21.238 21.239">
  <g id="Group_443" data-name="Group 443" transform="translate(-96.304 137.307)">
    <path id="Path_347" data-name="Path 347" d="M115.576-121.664a9.994,9.994,0,0,0-.007-10.049A9.577,9.577,0,0,0,114-133.759a9.653,9.653,0,0,0-2.053-1.574,9.994,9.994,0,0,0-10.049-.007,9.654,9.654,0,0,0-2.053,1.574,9.578,9.578,0,0,0-1.567,2.046,9.99,9.99,0,0,0,0,10.056,9.654,9.654,0,0,0,1.574,2.053,9.578,9.578,0,0,0,2.045,1.567,9.99,9.99,0,0,0,10.056,0A9.578,9.578,0,0,0,114-119.612,9.653,9.653,0,0,0,115.576-121.664Zm-10.252.2a5.378,5.378,0,0,1-2.254-1.358,5.5,5.5,0,0,1-1.365-2.261,5.362,5.362,0,0,1,.007-3.2,5.27,5.27,0,0,1,1.351-2.261,5.419,5.419,0,0,1,2.268-1.358,5.412,5.412,0,0,1,3.194,0,5.389,5.389,0,0,1,2.268,1.358,5.27,5.27,0,0,1,1.351,2.261,5.435,5.435,0,0,1,.007,3.2,5.532,5.532,0,0,1-1.365,2.261,5.378,5.378,0,0,1-2.254,1.358A5.518,5.518,0,0,1,105.324-121.469Z" fill="#fff" stroke="#d9000d" stroke-linecap="round" stroke-linejoin="round" stroke-width="1"/>
    <path id="Path_348" data-name="Path 348" d="M102.932-130.681a5.158,5.158,0,0,0-1.322,2.213l-3.359-3.358a9.374,9.374,0,0,1,1.534-2,9.448,9.448,0,0,1,2.009-1.541l3.358,3.359A5.3,5.3,0,0,0,102.932-130.681Z" fill="#d9000d"/>
    <path id="Path_349" data-name="Path 349" d="M113.638-119.975a9.374,9.374,0,0,1-2,1.534l-3.351-3.352a5.263,5.263,0,0,0,2.206-1.329,5.415,5.415,0,0,0,1.336-2.213l3.352,3.351A9.448,9.448,0,0,1,113.638-119.975Z" transform="translate(0.425 0.425)" fill="#d9000d"/>
    <path id="Path_350" data-name="Path 350" d="M115.172-131.819l-3.352,3.351a5.158,5.158,0,0,0-1.322-2.213,5.274,5.274,0,0,0-2.22-1.329l3.351-3.352a9.448,9.448,0,0,1,2.009,1.541A9.374,9.374,0,0,1,115.172-131.819Z" transform="translate(0.425)" fill="#d9000d"/>
    <path id="Path_351" data-name="Path 351" d="M105.145-121.793l-3.351,3.352a9.374,9.374,0,0,1-2-1.534,9.448,9.448,0,0,1-1.541-2.009l3.352-3.351a5.384,5.384,0,0,0,1.336,2.213A5.263,5.263,0,0,0,105.145-121.793Z" transform="translate(0 0.425)" fill="#d9000d"/>
    <circle id="Ellipse_120" data-name="Ellipse 120" cx="5" cy="5" r="5" transform="translate(101.925 -131.689)" fill="#004273"/>
  </g>
</svg>
