<svg xmlns="http://www.w3.org/2000/svg" width="93.638" height="93.638" viewBox="0 0 93.638 93.638"><path d="M94.819,48a46.819,46.819,0,1,0,46.819,46.819A46.812,46.812,0,0,0,94.819,48Zm18.863,47.7L82.8,114.379a1,1,0,0,1-1.508-.878V76.136a1,1,0,0,1,1.508-.878l30.883,18.683A1.032,1.032,0,0,1,113.682,95.7Z" transform="translate(-48 -48)" fill="#d9000d"/><path d="M128,97.074V135.8a1.017,1.017,0,0,0,1.524.919l31.32-19.363a1.085,1.085,0,0,0,0-1.825l-31.32-19.363A1.007,1.007,0,0,0,128,97.074Z" transform="translate(-95.038 -69.52)" fill="#e8eff7"/></svg>